<svg width="768" height="357" fill="none" xmlns="http://www.w3.org/2000/svg"><script/><path fill="#070707" d="M0 0h768v357H0z"/><path d="M427 217a8 8 0 0 1 8-8h309a8 8 0 0 1 8 8v116a8 8 0 0 1-8 8H435a8 8 0 0 1-8-8V217Z" fill="#070707"/><path d="M427 217a8 8 0 0 1 8-8h309a8 8 0 0 1 8 8v116a8 8 0 0 1-8 8H435a8 8 0 0 1-8-8V217Z" stroke="#303030" stroke-linecap="round"/><path d="M445.455 266a8 8 0 0 1 8-8h41a8 8 0 0 1 8 8v24a8 8 0 0 1-8 8h-41a8 8 0 0 1-8-8v-24Z" fill="#03001B"/><path d="M445.455 266a8 8 0 0 1 8-8h41a8 8 0 0 1 8 8v24a8 8 0 0 1-8 8h-41a8 8 0 0 1-8-8v-24Z" stroke="#4A3C72" stroke-linecap="round"/><path d="M464.491 279.72h.82c.07.67.7 1.14 1.54 1.14.88 0 1.48-.51 1.48-1.26 0-.64-.44-1.03-1.33-1.22l-.41-.08c-1.26-.25-1.91-.89-1.91-1.91 0-1.18.88-1.99 2.16-1.99 1.24 0 2.2.76 2.26 1.78h-.82c-.08-.59-.67-1.01-1.42-1.01-.8 0-1.33.47-1.33 1.17 0 .6.4.98 1.18 1.14l.41.08c1.37.28 2.07.94 2.07 2 0 1.23-.95 2.08-2.32 2.08-1.34 0-2.34-.81-2.38-1.92Zm9.216 1.78v-6.22h-2.11v-.78h5.08v.78h-2.1v6.22h-.87Zm6.996 0v-6.22h-2.11v-.78h5.08v.78h-2.1v6.22h-.87Z" fill="#EDEDED"/><path d="M510.455 266a8 8 0 0 1 8-8h41a8 8 0 0 1 8 8v24a8 8 0 0 1-8 8h-41a8 8 0 0 1-8-8v-24Z" fill="#03001B"/><path d="M510.455 266a8 8 0 0 1 8-8h41a8 8 0 0 1 8 8v24a8 8 0 0 1-8 8h-41a8 8 0 0 1-8-8v-24Z" stroke="#4A3C72" stroke-linecap="round"/><path d="M530.201 281.5v-7h.87v6.22h3.19v.78h-4.06Zm6.556 0v-7h.87v6.22h3.19v.78h-4.06Zm7.436-5.98v5.98h-.82v-7h1.25l1.31 4.43h.04l1.31-4.43h1.25v7h-.82v-5.98h-.04l-1.33 4.46h-.78l-1.33-4.46h-.04Z" fill="#EDEDED"/><path d="M575.455 266a8 8 0 0 1 8-8h41a8 8 0 0 1 8 8v24a8 8 0 0 1-8 8h-41a8 8 0 0 1-8-8v-24Z" fill="#03001B"/><path d="M575.455 266a8 8 0 0 1 8-8h41a8 8 0 0 1 8 8v24a8 8 0 0 1-8 8h-41a8 8 0 0 1-8-8v-24Z" stroke="#4A3C72" stroke-linecap="round"/><path d="M596.351 281.5v-6.22h-2.11v-.78h5.08v.78h-2.1v6.22h-.87Zm6.996 0v-6.22h-2.11v-.78h5.08v.78h-2.1v6.22h-.87Zm5.376-1.78h.82c.07.67.7 1.14 1.54 1.14.88 0 1.48-.51 1.48-1.26 0-.64-.44-1.03-1.33-1.22l-.41-.08c-1.26-.25-1.91-.89-1.91-1.91 0-1.18.88-1.99 2.16-1.99 1.24 0 2.2.76 2.26 1.78h-.82c-.08-.59-.67-1.01-1.42-1.01-.8 0-1.33.47-1.33 1.17 0 .6.4.98 1.18 1.14l.41.08c1.37.28 2.07.94 2.07 2 0 1.23-.95 2.08-2.32 2.08-1.34 0-2.34-.81-2.38-1.92Z" fill="#EDEDED"/><path d="M640.455 266a8 8 0 0 1 8-8h79a8 8 0 0 1 8 8v24a8 8 0 0 1-8 8h-79a8 8 0 0 1-8-8v-24Z" fill="#03001B"/><path d="M640.455 266a8 8 0 0 1 8-8h79a8 8 0 0 1 8 8v24a8 8 0 0 1-8 8h-79a8 8 0 0 1-8-8v-24Z" stroke="#4A3C72" stroke-linecap="round"/><path d="M653.915 270.02V276h-.82v-7h1.25l1.31 4.43h.04l1.31-4.43h1.25v7h-.82v-5.98h-.04l-1.33 4.46h-.78l-1.33-4.46h-.04Zm11.836-1.02v4.8c0 1.35-.97 2.3-2.34 2.3-1.37 0-2.34-.95-2.34-2.3V269h.87v4.8c0 .9.6 1.5 1.47 1.5.88 0 1.47-.6 1.47-1.5V269h.87Zm2.576 7v-7h.87v6.22h3.19v.78h-4.06Zm8.206 0v-6.22h-2.11V269h5.08v.78h-2.1V276h-.87Zm5.106 0v-.78h1.59v-5.44h-1.57V269h4v.78h-1.56v5.44h1.58v.78h-4.04Zm7.256-5.98V276h-.82v-7h1.25l1.31 4.43h.04l1.31-4.43h1.25v7h-.82v-5.98h-.04l-1.33 4.46h-.78l-1.33-4.46h-.04Zm9.176 6.08c-1.55 0-2.64-1.48-2.64-3.6s1.09-3.6 2.64-3.6 2.64 1.48 2.64 3.6-1.09 3.6-2.64 3.6Zm0-.8c1.07 0 1.77-1.1 1.77-2.8 0-1.7-.7-2.8-1.77-2.8s-1.77 1.1-1.77 2.8c0 1.7.7 2.8 1.77 2.8Zm4.857.7v-7h1.99c1.69 0 2.84 1.42 2.84 3.5s-1.15 3.5-2.84 3.5h-1.99Zm.87-.78h1.12c1.19 0 1.96-1.06 1.96-2.72 0-1.66-.77-2.72-1.96-2.72h-1.12v5.44Zm6.546.78h-.85l2.13-7h1.18l2.13 7h-.87l-.6-1.97h-2.52l-.6 1.97Zm.83-2.74h2.06l-1.01-3.34h-.04l-1.01 3.34ZM717.3 276v-7h.87v6.22h3.19v.78h-4.06Zm-45.395 5.02V287h-.82v-7h1.25l1.31 4.43h.04l1.31-4.43h1.25v7h-.82v-5.98h-.04l-1.33 4.46h-.78l-1.33-4.46h-.04Zm9.176 6.08c-1.55 0-2.64-1.48-2.64-3.6s1.09-3.6 2.64-3.6 2.64 1.48 2.64 3.6-1.09 3.6-2.64 3.6Zm0-.8c1.07 0 1.77-1.1 1.77-2.8 0-1.7-.7-2.8-1.77-2.8s-1.77 1.1-1.77 2.8c0 1.7.7 2.8 1.77 2.8Zm4.676.7v-7h1.99c1.69 0 2.84 1.42 2.84 3.5s-1.15 3.5-2.84 3.5h-1.99Zm.87-.78h1.12c1.19 0 1.96-1.06 1.96-2.72 0-1.66-.77-2.72-1.96-2.72h-1.12v5.44Zm6.756.78v-7h4.16v.78h-3.29v2.2h2.85v.78h-2.85v2.46h3.29v.78h-4.16Zm7.106 0v-7h.87v6.22h3.19v.78h-4.06ZM139.793 24v-2.94l-2.36-4.06h.97l1.83 3.19 1.84-3.19h.94l-2.36 4.06V24h-.86Zm7.547.1c-1.55 0-2.64-1.48-2.64-3.6s1.09-3.6 2.64-3.6 2.64 1.48 2.64 3.6-1.09 3.6-2.64 3.6Zm0-.8c1.07 0 1.77-1.1 1.77-2.8 0-1.7-.7-2.8-1.77-2.8s-1.77 1.1-1.77 2.8c0 1.7.7 2.8 1.77 2.8Zm9.516-6.3v4.8c0 1.35-.97 2.3-2.34 2.3-1.37 0-2.34-.95-2.34-2.3V17h.87v4.8c0 .9.6 1.5 1.47 1.5.88 0 1.47-.6 1.47-1.5V17h.87Zm3.756 3.12h1.71c.66 0 1.1-.47 1.1-1.17s-.44-1.17-1.1-1.17h-1.71v2.34Zm-.87 3.88v-7h2.53c1.17 0 1.99.8 1.99 1.95 0 .95-.56 1.66-1.42 1.88l1.62 3.17h-.95l-1.59-3.1h-1.31V24h-.87Zm17.422-1.78h.83c-.15 1.1-1.08 1.88-2.23 1.88-1.59 0-2.68-1.47-2.68-3.6 0-2.14 1.09-3.6 2.66-3.6 1.12 0 2.02.74 2.19 1.78h-.84c-.14-.59-.67-.98-1.32-.98-1.1 0-1.81 1.11-1.81 2.81s.71 2.79 1.82 2.79c.69 0 1.24-.43 1.38-1.08ZM181.04 24v-7h.87v6.22h3.19V24h-4.06Zm6.136 0v-.78h1.59v-5.44h-1.57V17h4v.78h-1.56v5.44h1.58V24h-4.04Zm7.146 0v-7h4.16v.78h-3.29v2.2h2.85v.78h-2.85v2.46h3.29V24h-4.16Zm10.856-1.27V17h.81v7h-1.12l-2.79-6.1h-.04V24h-.81v-7h1.28l2.63 5.73h.04Zm4.876 1.27v-6.22h-2.11V17h5.08v.78h-2.1V24h-.87Zm5.196-1.78h.82c.07.67.7 1.14 1.54 1.14.88 0 1.48-.51 1.48-1.26 0-.64-.44-1.03-1.33-1.22l-.41-.08c-1.26-.25-1.91-.89-1.91-1.91 0-1.18.88-1.99 2.16-1.99 1.24 0 2.2.76 2.26 1.78h-.82c-.08-.59-.67-1.01-1.42-1.01-.8 0-1.33.47-1.33 1.17 0 .6.4.98 1.18 1.14l.41.08c1.37.28 2.07.94 2.07 2 0 1.23-.95 2.08-2.32 2.08-1.34 0-2.34-.81-2.38-1.92Z" fill="#EDEDED"/><g clip-path="url(#a)" fill-rule="evenodd" clip-rule="evenodd" fill="#131313"><path d="M-425.891 283.33 7.629-150.189l.756.756-433.52 433.519-.756-.756Zm6.636 0 433.52-433.519.756.756-433.52 433.519-.756-.756Zm6.636 0 433.52-433.519.756.756-433.52 433.519-.756-.756Zm6.636 0 433.52-433.519.756.756-433.52 433.519-.756-.756Zm6.636 0 433.52-433.519.756.756-433.52 433.519-.756-.756Zm6.636 0 433.52-433.519.756.756-433.52 433.519-.756-.756Zm6.636 0 433.52-433.519.756.756-433.52 433.519-.756-.756Zm6.636 0 433.52-433.519.756.756-433.52 433.519-.756-.756Zm6.636 0 433.52-433.519.756.756-433.52 433.519-.756-.756Zm6.636 0 433.52-433.519.756.756-433.52 433.519-.756-.756Zm6.636 0 433.52-433.519.756.756-433.52 433.519-.756-.756Zm6.636 0 433.52-433.519.756.756-433.52 433.519-.756-.756Zm6.636 0 433.52-433.519.756.756-433.52 433.519-.756-.756Zm6.636 0 433.52-433.519.756.756-433.52 433.519-.756-.756Zm6.636 0 433.52-433.519.756.756-433.52 433.519-.756-.756Zm6.636 0 433.52-433.519.756.756-433.52 433.519-.756-.756Zm6.636 0 433.52-433.519.756.756-433.52 433.519-.756-.756Zm6.637 0 433.519-433.519.756.756-433.52 433.519-.755-.756Zm6.636 0 433.519-433.519.756.756-433.519 433.519-.756-.756Zm6.636 0 433.519-433.519.756.756-433.519 433.519-.756-.756Zm6.636 0 433.519-433.519.756.756-433.519 433.519-.756-.756Zm6.636 0 433.519-433.519.756.756-433.519 433.519-.756-.756Zm6.636 0 433.519-433.519.756.756-433.519 433.519-.756-.756Zm6.636 0 433.519-433.519.756.756-433.519 433.519-.756-.756Zm6.636 0 433.52-433.519.756.756-433.52 433.519-.756-.756Zm6.636 0 433.52-433.519.756.756-433.52 433.519-.756-.756Zm6.636 0 433.52-433.519.756.756-433.52 433.519-.756-.756Zm6.636 0 433.52-433.519.756.756-433.52 433.519-.756-.756Zm6.636 0 433.52-433.519.756.756-433.52 433.519-.756-.756Zm6.636 0 433.52-433.519.756.756-433.52 433.519-.756-.756Zm6.636 0 433.52-433.519.756.756-433.52 433.519-.756-.756Zm6.636 0 433.52-433.519.756.756-433.52 433.519-.756-.756Zm6.636 0 433.52-433.519.756.756-433.52 433.519-.756-.756Zm6.636 0 433.52-433.519.756.756-433.52 433.519-.756-.756Zm6.636 0 433.52-433.519.756.756-433.52 433.519-.756-.756Zm6.636 0 433.52-433.519.756.756-433.52 433.519-.756-.756Zm6.636 0 433.52-433.519.756.756-433.52 433.519-.756-.756Zm6.636 0 433.52-433.519.756.756-433.52 433.519-.756-.756Zm6.636 0 433.52-433.519.756.756-433.52 433.519-.756-.756Zm6.636 0 433.52-433.519.756.756-433.52 433.519-.756-.756Zm6.636 0 433.52-433.519.756.756-433.52 433.519-.756-.756Zm6.636 0 433.52-433.519.756.756-433.52 433.519-.756-.756Zm6.636 0 433.52-433.519.756.756-433.52 433.519-.756-.756Zm6.636 0 433.52-433.519.756.756-433.52 433.519-.756-.756Zm6.636 0 433.52-433.519.756.756-433.52 433.519-.756-.756Zm6.636 0 433.52-433.519.756.756-433.52 433.519-.756-.756Zm6.636 0 433.52-433.519.756.756-433.52 433.519-.756-.756Zm6.636 0 433.52-433.519.756.756-433.52 433.519-.756-.756Zm6.636 0 433.52-433.519.756.756-433.52 433.519-.756-.756Zm6.637 0 433.519-433.519.756.756-433.52 433.519-.755-.756Zm6.635 0 433.52-433.519.756.756-433.52 433.519-.755-.756Zm6.637 0 433.519-433.519.756.756-433.52 433.519-.755-.756Zm6.636 0 433.519-433.519.756.756-433.52 433.519-.755-.756Zm6.636 0 433.519-433.519.756.756-433.52 433.519-.755-.756Zm6.636 0 433.519-433.519.756.756-433.52 433.519-.755-.756Zm6.635 0 433.52-433.519.756.756-433.52 433.519-.755-.756Zm6.637 0 433.519-433.519.757.756-433.52 433.519-.756-.756Zm6.636 0 433.52-433.519.756.756-433.52 433.519-.756-.756Zm6.636 0 433.52-433.519.756.756-433.52 433.519-.756-.756Zm6.636 0 433.52-433.519.756.756-433.52 433.519-.756-.756Zm6.635 0 433.521-433.519.756.756-433.52 433.519-.756-.756Zm6.637 0 433.52-433.519.756.756-433.52 433.519-.756-.756Zm6.636 0 433.52-433.519.756.756-433.52 433.519-.756-.756Zm6.636 0 433.52-433.519.756.756-433.52 433.519-.756-.756Zm6.636 0 433.52-433.519.756.756L-.429 284.086l-.756-.756Zm6.636 0 433.52-433.519.756.756L6.207 284.086l-.756-.756Zm6.636 0 433.52-433.519.756.756-433.52 433.519-.756-.756Zm6.636 0 433.52-433.519.756.756-433.52 433.519-.756-.756Zm6.637 0 433.519-433.519.756.756-433.52 433.519-.756-.756Zm6.635 0 433.52-433.519.756.756-433.52 433.519-.756-.756Zm6.636 0 433.52-433.519.756.756-433.52 433.519-.756-.756Zm6.636 0 433.52-433.519.756.756-433.52 433.519-.756-.756Zm6.636 0 433.52-433.519.756.756-433.52 433.519-.756-.756Zm6.637 0 433.519-433.519.756.756-433.52 433.519-.756-.756Zm6.635 0 433.52-433.519.756.756-433.52 433.519-.756-.756Zm6.636 0 433.52-433.519.756.756-433.52 433.519-.756-.756Zm6.636 0 433.52-433.519.756.756-433.52 433.519-.756-.756Zm6.636 0 433.52-433.519.756.756-433.52 433.519-.756-.756Zm6.637 0 433.519-433.519.756.756-433.52 433.519-.756-.756Zm6.635 0 433.52-433.519.756.756-433.52 433.519-.756-.756Zm6.636 0 433.52-433.519.756.756-433.52 433.519-.756-.756Zm6.636 0 433.52-433.519.756.756-433.52 433.519-.756-.756Zm6.637 0 433.519-433.519.756.756-433.52 433.519-.755-.756Zm6.636 0 433.519-433.519.756.756-433.52 433.519-.755-.756Zm6.636 0 433.519-433.519.756.756-433.519 433.519-.756-.756Zm6.636 0 433.519-433.519.756.756-433.519 433.519-.756-.756Zm6.636 0 433.519-433.519.756.756-433.519 433.519-.756-.756Zm6.636 0 433.52-433.519.756.756L152.2 284.086l-.756-.756Zm6.636 0L591.6-150.189l.756.756-433.52 433.519-.756-.756Zm6.636 0 433.52-433.519.756.756-433.52 433.519-.756-.756Zm6.636 0 433.52-433.519.756.756-433.52 433.519-.756-.756Zm6.636 0 433.52-433.519.756.756-433.52 433.519-.756-.756Zm6.636 0 433.52-433.519.756.756-433.52 433.519-.756-.756Zm6.636 0 433.52-433.519.756.756-433.52 433.519-.756-.756Zm6.636 0 433.52-433.519.756.756-433.52 433.519-.756-.756Zm6.636 0 433.52-433.519.756.756-433.52 433.519-.756-.756Zm6.636 0 433.52-433.519.756.756-433.52 433.519-.756-.756Zm6.636 0 433.52-433.519.756.756-433.52 433.519-.756-.756Zm6.636 0 433.52-433.519.756.756-433.52 433.519-.756-.756Zm6.637 0 433.519-433.519.756.756-433.52 433.519-.755-.756Zm6.636 0 433.519-433.519.756.756-433.519 433.519-.756-.756Zm6.636 0 433.519-433.519.756.756-433.519 433.519-.756-.756Zm6.636 0 433.519-433.519.757.756-433.52 433.519-.756-.756Zm6.636 0 433.52-433.519.756.756-433.52 433.519-.756-.756Zm6.636 0 433.52-433.519.756.756-433.52 433.519-.756-.756Zm6.636 0 433.52-433.519.756.756-433.52 433.519-.756-.756Zm6.636 0 433.52-433.519.756.756-433.52 433.519-.756-.756Zm6.636 0 433.52-433.519.756.756-433.52 433.519-.756-.756Zm6.636 0 433.52-433.519.756.756-433.52 433.519-.756-.756Zm6.636 0 433.52-433.519.756.756-433.52 433.519-.756-.756Zm6.636 0 433.52-433.519.756.756-433.52 433.519-.756-.756Zm6.636 0 433.52-433.519.756.756-433.52 433.519-.756-.756Zm6.636 0 433.52-433.519.756.756-433.52 433.519-.756-.756Zm6.636 0 433.52-433.519.756.756-433.52 433.519-.756-.756Zm6.636 0 433.52-433.519.756.756-433.52 433.519-.756-.756Zm6.637 0 433.519-433.519.756.756L338.01 284.086l-.756-.756Zm6.636 0 433.519-433.519.756.756-433.519 433.519-.756-.756Zm6.636 0 433.519-433.519.756.756-433.519 433.519-.756-.756Z"/></g><rect x="16.5" y="34.5" width="325" height="65" rx="7.5" stroke="#1F1F1F"/><path d="M550.293 24v-2.94l-2.36-4.06h.97l1.83 3.19 1.84-3.19h.94l-2.36 4.06V24h-.86Zm7.547.1c-1.55 0-2.64-1.48-2.64-3.6s1.09-3.6 2.64-3.6 2.64 1.48 2.64 3.6-1.09 3.6-2.64 3.6Zm0-.8c1.07 0 1.77-1.1 1.77-2.8 0-1.7-.7-2.8-1.77-2.8s-1.77 1.1-1.77 2.8c0 1.7.7 2.8 1.77 2.8Zm9.516-6.3v4.8c0 1.35-.97 2.3-2.34 2.3-1.37 0-2.34-.95-2.34-2.3V17h.87v4.8c0 .9.6 1.5 1.47 1.5.88 0 1.47-.6 1.47-1.5V17h.87Zm3.756 3.12h1.71c.66 0 1.1-.47 1.1-1.17s-.44-1.17-1.1-1.17h-1.71v2.34Zm-.87 3.88v-7h2.53c1.17 0 1.99.8 1.99 1.95 0 .95-.56 1.66-1.42 1.88l1.62 3.17h-.95l-1.59-3.1h-1.31V24h-.87Zm13.482 0v-7h2.36c1.12 0 1.93.75 1.93 1.79 0 .69-.36 1.25-.93 1.53v.04c.71.26 1.15.89 1.15 1.71 0 1.12-.85 1.93-2.02 1.93h-2.49Zm.87-4.02h1.53c.61 0 1.03-.47 1.03-1.12 0-.65-.41-1.08-1.03-1.08h-1.53v2.2Zm0 3.24h1.65c.66 0 1.11-.5 1.11-1.23s-.45-1.23-1.11-1.23h-1.65v2.46Zm6.536.78h-.85l2.13-7h1.18l2.13 7h-.87l-.6-1.97h-2.52l-.6 1.97Zm.83-2.74h2.06l-1.01-3.34h-.04l-1.01 3.34Zm9.576.96h.83c-.15 1.1-1.08 1.88-2.23 1.88-1.59 0-2.68-1.47-2.68-3.6 0-2.14 1.09-3.6 2.66-3.6 1.12 0 2.02.74 2.19 1.78h-.84c-.14-.59-.67-.98-1.32-.98-1.1 0-1.81 1.11-1.81 2.81s.71 2.79 1.82 2.79c.69 0 1.24-.43 1.38-1.08Zm4.046-5.22v3.55l3.15-3.55h1.07l-2.59 2.94 2.72 4.06h-1.01l-2.29-3.4-1.05 1.18V24h-.87v-7h.87Zm6.536 7v-7h4.16v.78h-3.29v2.2h2.85v.78h-2.85v2.46h3.29V24h-4.16Zm10.436-1.27V17h.81v7h-1.12l-2.79-6.1h-.04V24h-.81v-7h1.28l2.63 5.73h.04ZM626.08 24v-7h1.99c1.69 0 2.84 1.42 2.84 3.5s-1.15 3.5-2.84 3.5h-1.99Zm.87-.78h1.12c1.19 0 1.96-1.06 1.96-2.72 0-1.66-.77-2.72-1.96-2.72h-1.12v5.44Z" fill="#EDEDED"/><g clip-path="url(#b)" fill-rule="evenodd" clip-rule="evenodd" fill="#131313"><path d="m-14.891 283.33 433.52-433.519.756.756-433.52 433.519-.756-.756Zm6.636 0 433.52-433.519.756.756-433.52 433.519-.756-.756Zm6.636 0 433.52-433.519.756.756L-.863 284.086l-.756-.756Zm6.636 0 433.52-433.519.756.756L5.773 284.086l-.756-.756Zm6.636 0 433.52-433.519.756.756-433.52 433.519-.756-.756Zm6.637 0 433.519-433.519.756.756-433.52 433.519-.756-.756Zm6.635 0 433.52-433.519.756.756-433.52 433.519-.756-.756Zm6.636 0 433.52-433.519.756.756-433.52 433.519-.756-.756Zm6.636 0 433.52-433.519.756.756-433.52 433.519-.756-.756Zm6.636 0 433.52-433.519.756.756-433.52 433.519-.756-.756Zm6.637 0 433.519-433.519.756.756-433.52 433.519-.756-.756Zm6.635 0 433.52-433.519.756.756-433.52 433.519-.756-.756Zm6.636 0 433.52-433.519.756.756-433.52 433.519-.756-.756Zm6.636 0 433.52-433.519.756.756-433.52 433.519-.756-.756Zm6.636 0 433.52-433.519.756.756-433.52 433.519-.756-.756Zm6.637 0 433.519-433.519.756.756-433.52 433.519-.755-.756Zm6.635 0 433.52-433.519.756.756-433.52 433.519-.755-.756Zm6.636 0 433.52-433.519.756.756-433.52 433.519-.756-.756Zm6.637 0 433.519-433.519.756.756-433.519 433.519-.756-.756Zm6.636 0 433.519-433.519.756.756L111.95 284.086l-.756-.756Zm6.636 0 433.519-433.519.756.756-433.519 433.519-.756-.756Zm6.636 0 433.519-433.519.756.756-433.519 433.519-.756-.756Zm6.636 0 433.519-433.519.756.756-433.519 433.519-.756-.756Zm6.636 0 433.519-433.519.756.756-433.519 433.519-.756-.756Zm6.636 0 433.52-433.519.756.756-433.52 433.519-.756-.756Zm6.636 0 433.52-433.519.756.756-433.52 433.519-.756-.756Zm6.636 0 433.52-433.519.756.756-433.52 433.519-.756-.756Zm6.636 0 433.52-433.519.756.756-433.52 433.519-.756-.756Zm6.636 0 433.52-433.519.756.756-433.52 433.519-.756-.756Zm6.636 0 433.52-433.519.756.756-433.52 433.519-.756-.756Zm6.636 0 433.52-433.519.756.756-433.52 433.519-.756-.756Zm6.636 0 433.52-433.519.756.756-433.52 433.519-.756-.756Zm6.636 0 433.52-433.519.756.756-433.52 433.519-.756-.756Zm6.636 0 433.52-433.519.756.756-433.52 433.519-.756-.756Zm6.636 0 433.52-433.519.756.756-433.52 433.519-.756-.756Zm6.636 0 433.52-433.519.756.756-433.52 433.519-.756-.756Zm6.636 0 433.52-433.519.756.756-433.52 433.519-.756-.756Zm6.636 0 433.52-433.519.756.756-433.52 433.519-.756-.756Zm6.636 0 433.52-433.519.756.756-433.52 433.519-.756-.756Zm6.636 0 433.52-433.519.756.756-433.52 433.519-.756-.756Zm6.636 0 433.52-433.519.756.756-433.52 433.519-.756-.756Zm6.636 0 433.52-433.519.756.756-433.52 433.519-.756-.756Zm6.636 0 433.52-433.519.756.756-433.52 433.519-.756-.756Zm6.636 0 433.52-433.519.756.756-433.52 433.519-.756-.756Zm6.636 0 433.52-433.519.756.756-433.52 433.519-.756-.756Zm6.636 0 433.52-433.519.756.756-433.52 433.519-.756-.756Zm6.636 0 433.52-433.519.756.756-433.52 433.519-.756-.756Zm6.636 0 433.52-433.519.756.756-433.52 433.519-.756-.756Zm6.636 0 433.52-433.519.756.756-433.52 433.519-.756-.756Zm6.637 0 433.519-433.519.756.756-433.52 433.519-.755-.756Zm6.636 0L750.43-150.189l.756.756-433.52 433.519-.755-.756Zm6.636 0 433.519-433.519.756.756-433.519 433.519-.756-.756Zm6.636 0 433.519-433.519.756.756-433.519 433.519-.756-.756Zm6.636 0 433.519-433.519.756.756-433.519 433.519-.756-.756Zm6.636 0 433.519-433.519.756.756-433.519 433.519-.756-.756Zm6.636 0L783.61-150.189l.756.756-433.519 433.519-.756-.756Zm6.636 0 433.519-433.519.757.756-433.52 433.519-.756-.756Zm6.636 0 433.52-433.519.756.756-433.52 433.519-.756-.756Zm6.636 0 433.52-433.519.756.756-433.52 433.519-.756-.756Zm6.636 0 433.52-433.519.756.756-433.52 433.519-.756-.756Zm6.636 0 433.52-433.519.756.756-433.52 433.519-.756-.756Zm6.636 0 433.52-433.519.756.756-433.52 433.519-.756-.756Zm6.636 0 433.52-433.519.756.756-433.52 433.519-.756-.756Zm6.636 0 433.52-433.519.756.756-433.52 433.519-.756-.756Zm6.636 0 433.52-433.519.756.756-433.52 433.519-.756-.756Zm6.636 0 433.52-433.519.756.756-433.52 433.519-.756-.756Zm6.636 0 433.52-433.519.756.756-433.52 433.519-.756-.756Zm6.636 0 433.52-433.519.756.756-433.52 433.519-.756-.756Zm6.636 0 433.52-433.519.756.756-433.52 433.519-.756-.756Zm6.636 0 433.52-433.519.756.756-433.52 433.519-.756-.756Zm6.636 0 433.52-433.519.756.756-433.52 433.519-.756-.756Zm6.636 0 433.52-433.519.756.756-433.52 433.519-.756-.756Zm6.636 0 433.52-433.519.756.756-433.52 433.519-.756-.756Zm6.636 0 433.52-433.519.756.756-433.52 433.519-.756-.756Zm6.636 0 433.52-433.519.756.756-433.52 433.519-.756-.756Zm6.636 0 433.52-433.519.756.756-433.52 433.519-.756-.756Zm6.636 0 433.52-433.519.756.756-433.52 433.519-.756-.756Zm6.636 0 433.52-433.519.756.756-433.52 433.519-.756-.756Zm6.636 0 433.52-433.519.756.756-433.52 433.519-.756-.756Zm6.636 0 433.52-433.519.756.756-433.52 433.519-.756-.756Zm6.636 0 433.52-433.519.756.756-433.52 433.519-.756-.756Zm6.636 0 433.52-433.519.756.756-433.52 433.519-.756-.756Zm6.637 0 433.519-433.519.756.756-433.52 433.519-.755-.756Zm6.636 0 433.519-433.519.756.756-433.52 433.519-.755-.756Zm6.636 0 433.519-433.519.756.756-433.519 433.519-.756-.756Zm6.636 0 433.519-433.519.756.756-433.519 433.519-.756-.756Zm6.636 0 433.519-433.519.756.756-433.519 433.519-.756-.756Zm6.636 0 433.52-433.519.756.756L563.2 284.086l-.756-.756Zm6.636 0 433.52-433.519.76.756-433.524 433.519-.756-.756Zm6.636 0 433.524-433.519.75.756-433.518 433.519-.756-.756Zm6.636 0 433.518-433.519.76.756-433.522 433.519-.756-.756Zm6.636 0 433.522-433.519.75.756-433.516 433.519-.756-.756Zm6.636 0 433.516-433.519.76.756-433.52 433.519-.756-.756Zm6.636 0 433.52-433.519.76.756-433.524 433.519-.756-.756Zm6.636 0 433.524-433.519.75.756-433.518 433.519-.756-.756Zm6.636 0 433.518-433.519.76.756-433.522 433.519-.756-.756Zm6.636 0 433.522-433.519.75.756-433.516 433.519-.756-.756Zm6.636 0 433.516-433.519.76.756-433.52 433.519-.756-.756Zm6.636 0 433.52-433.519.76.756-433.524 433.519-.756-.756Zm6.637 0L1075.6-150.189l.75.756-433.518 433.519-.755-.756Zm6.636 0 433.517-433.519.76.756-433.521 433.519-.756-.756Zm6.636 0 433.521-433.519.75.756-433.515 433.519-.756-.756Zm6.636 0L1095.5-150.189l.76.756-433.519 433.519-.756-.756Zm6.636 0 433.519-433.519.76.756-433.523 433.519-.756-.756Zm6.636 0 433.523-433.519.75.756-433.517 433.519-.756-.756Zm6.636 0 433.517-433.519.76.756-433.521 433.519-.756-.756Zm6.636 0 433.521-433.519.75.756-433.515 433.519-.756-.756Zm6.636 0 433.515-433.519.76.756-433.519 433.519-.756-.756Zm6.636 0 433.519-433.519.76.756-433.523 433.519-.756-.756Zm6.636 0 433.523-433.519.75.756-433.517 433.519-.756-.756Zm6.636 0 433.517-433.519.76.756-433.521 433.519-.756-.756Zm6.636 0 433.521-433.519.76.756-433.525 433.519-.756-.756Zm6.636 0 433.525-433.519.75.756-433.519 433.519-.756-.756Zm6.636 0L1168.5-150.189l.76.756-433.523 433.519-.756-.756Zm6.636 0 433.523-433.519.75.756-433.517 433.519-.756-.756Zm6.637 0 433.516-433.519.76.756-433.52 433.519-.756-.756Zm6.636 0 433.52-433.519.76.756-433.524 433.519-.756-.756Zm6.636 0 433.524-433.519.75.756-433.518 433.519-.756-.756Z"/></g><rect x="427.5" y="34.5" width="324" height="65" rx="7.5" stroke="#1F1F1F"/><path d="M549 54a8 8 0 0 1 8-8h65a8 8 0 0 1 8 8v24a8 8 0 0 1-8 8h-65a8 8 0 0 1-8-8V54Z" fill="#070707"/><path d="M549 54a8 8 0 0 1 8-8h65a8 8 0 0 1 8 8v24a8 8 0 0 1-8 8h-65a8 8 0 0 1-8-8V54Z" stroke="#303030" stroke-linecap="round"/><path d="M573.37 69.5h-.85l2.13-7h1.18l2.13 7h-.87l-.6-1.97h-2.52l-.6 1.97Zm.83-2.74h2.06l-1.01-3.34h-.04l-1.01 3.34Zm8.096-.25v-.78h2.41v3.77h-.79v-1.06h-.03c-.36.72-.98 1.16-1.74 1.16-1.39 0-2.4-1.48-2.4-3.56 0-2.16 1.09-3.64 2.68-3.64 1.13 0 2.05.74 2.23 1.78h-.85c-.15-.59-.69-.98-1.35-.98-1.12 0-1.84 1.1-1.84 2.82 0 1.67.68 2.8 1.68 2.8.92 0 1.57-.95 1.57-2.31h-1.57Zm5.336 2.99v-7h4.16v.78h-3.29v2.2h2.85v.78h-2.85v2.46h3.29v.78h-4.16Zm10.556-1.27V62.5h.81v7h-1.12l-2.79-6.1h-.04v6.1h-.81v-7h1.28l2.63 5.73h.04Zm5.176 1.27v-6.22h-2.11v-.78h5.08v.78h-2.1v6.22h-.87Z" fill="#EDEDED"/><path d="M29 53.5a8 8 0 0 1 8-8h80a8 8 0 0 1 8 8v25a8 8 0 0 1-8 8H37a8 8 0 0 1-8-8v-25Z" fill="#070707"/><path d="M29 53.5a8 8 0 0 1 8-8h80a8 8 0 0 1 8 8v25a8 8 0 0 1-8 8H37a8 8 0 0 1-8-8v-25Z" stroke="#303030" stroke-linecap="round"/><path d="m67.406 69.5-.74-7h.8l.57 5.86h.04l1.26-4.8h.74l1.26 4.8h.04l.58-5.86h.79l-.74 7h-1.07l-1.21-4.62h-.04l-1.21 4.62h-1.07Zm7.906 0v-7h4.16v.78h-3.29v2.2h2.85v.78h-2.85v2.46h3.29v.78h-4.16Zm6.886 0v-7h2.36c1.12 0 1.93.75 1.93 1.79 0 .69-.36 1.25-.93 1.53v.04c.71.26 1.15.89 1.15 1.71 0 1.12-.85 1.93-2.02 1.93h-2.49Zm.87-4.02h1.53c.61 0 1.03-.47 1.03-1.12 0-.65-.41-1.08-1.03-1.08h-1.53v2.2Zm0 3.24h1.65c.66 0 1.11-.5 1.11-1.23s-.45-1.23-1.11-1.23h-1.65v2.46Z" fill="#EDEDED"/><path d="M131 53.5a8 8 0 0 1 8-8h80a8 8 0 0 1 8 8v25a8 8 0 0 1-8 8h-80a8 8 0 0 1-8-8v-25Z" fill="#070707"/><path d="M131 53.5a8 8 0 0 1 8-8h80a8 8 0 0 1 8 8v25a8 8 0 0 1-8 8h-80a8 8 0 0 1-8-8v-25Z" stroke="#303030" stroke-linecap="round"/><path d="M159.452 63.52v5.98h-.82v-7h1.25l1.31 4.43h.04l1.31-4.43h1.25v7h-.82v-5.98h-.04l-1.33 4.46h-.78l-1.33-4.46h-.04Zm9.176 6.08c-1.55 0-2.64-1.48-2.64-3.6s1.09-3.6 2.64-3.6 2.64 1.48 2.64 3.6-1.09 3.6-2.64 3.6Zm0-.8c1.07 0 1.77-1.1 1.77-2.8 0-1.7-.7-2.8-1.77-2.8s-1.77 1.1-1.77 2.8c0 1.7.7 2.8 1.77 2.8Zm5.076.7v-7h2.36c1.12 0 1.93.75 1.93 1.79 0 .69-.36 1.25-.93 1.53v.04c.71.26 1.15.89 1.15 1.71 0 1.12-.85 1.93-2.02 1.93h-2.49Zm.87-4.02h1.53c.61 0 1.03-.47 1.03-1.12 0-.65-.41-1.08-1.03-1.08h-1.53v2.2Zm0 3.24h1.65c.66 0 1.11-.5 1.11-1.23s-.45-1.23-1.11-1.23h-1.65v2.46Zm6.206.78v-.78h1.59v-5.44h-1.57v-.78h4v.78h-1.56v5.44h1.58v.78h-4.04Zm6.656 0v-7h.87v6.22h3.19v.78h-4.06Zm7.186 0v-7h4.16v.78h-3.29v2.2h2.85v.78h-2.85v2.46h3.29v.78h-4.16Z" fill="#EDEDED"/><path d="M233 53.5a8 8 0 0 1 8-8h80a8 8 0 0 1 8 8v25a8 8 0 0 1-8 8h-80a8 8 0 0 1-8-8v-25Z" fill="#070707"/><path d="M233 53.5a8 8 0 0 1 8-8h80a8 8 0 0 1 8 8v25a8 8 0 0 1-8 8h-80a8 8 0 0 1-8-8v-25Z" stroke="#303030" stroke-linecap="round"/><path d="M264.66 69.5v-7h2.56c1.2 0 2.04.84 2.04 2.02 0 1.18-.84 2.02-2.04 2.02h-1.69v2.96h-.87Zm.87-3.74h1.74c.69 0 1.15-.5 1.15-1.24 0-.75-.46-1.24-1.15-1.24h-1.74v2.48Zm5.956 3.74v-7h.87v2.98h2.94V62.5h.87v7h-.87v-3.22h-2.94v3.22h-.87Zm9.516.1c-1.55 0-2.64-1.48-2.64-3.6s1.09-3.6 2.64-3.6 2.64 1.48 2.64 3.6-1.09 3.6-2.64 3.6Zm0-.8c1.07 0 1.77-1.1 1.77-2.8 0-1.7-.7-2.8-1.77-2.8s-1.77 1.1-1.77 2.8c0 1.7.7 2.8 1.77 2.8Zm8.566-.57V62.5h.81v7h-1.12l-2.79-6.1h-.04v6.1h-.81v-7h1.28l2.63 5.73h.04Zm3.856 1.27v-7h4.16v.78h-3.29v2.2h2.85v.78h-2.85v2.46h3.29v.78h-4.16Z" fill="#EDEDED"/><path d="M179.283 110.717a.4.4 0 0 0-.566 0l-2.545 2.546a.398.398 0 0 0 0 .565.398.398 0 0 0 .565 0l2.263-2.262 2.263 2.262a.398.398 0 0 0 .565 0 .398.398 0 0 0 0-.565l-2.545-2.546Zm-.566 85.566a.4.4 0 0 0 .566 0l2.545-2.546a.398.398 0 0 0 0-.565.398.398 0 0 0-.565 0L179 195.434l-2.263-2.262a.398.398 0 0 0-.565 0 .398.398 0 0 0 0 .565l2.545 2.546ZM178.6 111v85h.8v-85h-.8Zm411.183-.283a.4.4 0 0 0-.566 0l-2.545 2.546a.398.398 0 0 0 0 .565.398.398 0 0 0 .565 0l2.263-2.262 2.263 2.262a.398.398 0 0 0 .565 0 .398.398 0 0 0 0-.565l-2.545-2.546Zm-.566 85.566a.4.4 0 0 0 .566 0l2.545-2.546a.398.398 0 0 0 0-.565.398.398 0 0 0-.565 0l-2.263 2.262-2.263-2.262a.398.398 0 0 0-.565 0 .398.398 0 0 0 0 .565l2.545 2.546ZM589.1 111v85h.8v-85h-.8Z" fill="#999"/><rect x="158.75" y="144.006" width="40.5" height="14.5" rx="7.25" fill="#1F1F1F"/><rect x="158.75" y="144.006" width="40.5" height="14.5" rx="7.25" stroke="#303030" stroke-width=".5"/><path d="m165.416 154.256-.592-5.6h.64l.456 4.688h.032l1.008-3.84h.592l1.008 3.84h.032l.464-4.688h.632l-.592 5.6h-.856l-.968-3.696h-.032l-.968 3.696h-.856Zm5.629-2.032c.048.92.536 1.52 1.272 1.52.448 0 .808-.232.936-.592h.64c-.16.712-.8 1.184-1.592 1.184-1.12 0-1.92-.944-1.92-2.264 0-1.296.76-2.216 1.832-2.216 1.04 0 1.76.864 1.76 2.112v.256h-2.928Zm1.168-1.784c-.6 0-1.032.488-1.144 1.256h2.24c-.032-.76-.488-1.256-1.096-1.256Zm2.501 3.816v-5.92h.672v2.328h.032c.264-.52.704-.808 1.264-.808 1.016 0 1.752.944 1.752 2.24 0 1.296-.728 2.24-1.744 2.24-.592 0-1.048-.32-1.312-.888h-.032v.808h-.632Zm1.856-.528c.704 0 1.184-.664 1.184-1.632 0-.968-.48-1.632-1.184-1.632s-1.2.672-1.2 1.632c0 .96.496 1.632 1.2 1.632Zm3.541-2.576h1.368c.528 0 .88-.376.88-.936s-.352-.936-.88-.936h-1.368v1.872Zm-.696 3.104v-5.6h2.024c.936 0 1.592.64 1.592 1.56 0 .76-.448 1.328-1.136 1.504l1.296 2.536h-.76l-1.272-2.48h-1.048v2.48h-.696Zm5.869 0v-4.976h-1.688v-.624h4.064v.624h-1.68v4.976h-.696Zm6.372-1.424h.664c-.12.88-.864 1.504-1.784 1.504-1.272 0-2.144-1.176-2.144-2.88 0-1.712.872-2.88 2.128-2.88.896 0 1.616.592 1.752 1.424h-.672c-.112-.472-.536-.784-1.056-.784-.88 0-1.448.888-1.448 2.248 0 1.36.568 2.232 1.456 2.232.552 0 .992-.344 1.104-.864Z" fill="#fff"/><path d="M415.611 110.949a.4.4 0 0 0-.448-.346l-3.57.46a.4.4 0 1 0 .102.794l3.173-.409.409 3.174a.4.4 0 0 0 .794-.103l-.46-3.57Zm-65.702 84.199a.4.4 0 0 0 .448.346l3.57-.46a.4.4 0 0 0-.102-.793l-3.174.408-.409-3.173a.399.399 0 1 0-.793.102l.46 3.57Zm64.988-84.392-64.908 84.097.633.489 64.909-84.098-.634-.488Z" fill="#999"/><rect x="368.466" y="144.006" width="41.22" height="14.5" rx="7.25" fill="#1F1F1F"/><rect x="368.466" y="144.006" width="41.22" height="14.5" rx="7.25" stroke="#303030" stroke-width=".5"/><path d="m375.492 154.256-.592-5.6h.64l.456 4.688h.032l1.008-3.84h.592l1.008 3.84h.032l.464-4.688h.632l-.592 5.6h-.856l-.968-3.696h-.032l-.968 3.696h-.856Zm5.628-2.032c.048.92.536 1.52 1.272 1.52.448 0 .808-.232.936-.592h.64c-.16.712-.8 1.184-1.592 1.184-1.12 0-1.92-.944-1.92-2.264 0-1.296.76-2.216 1.832-2.216 1.04 0 1.76.864 1.76 2.112v.256h-2.928Zm1.168-1.784c-.6 0-1.032.488-1.144 1.256h2.24c-.032-.76-.488-1.256-1.096-1.256Zm2.501 3.816v-5.92h.672v2.328h.032c.264-.52.704-.808 1.264-.808 1.016 0 1.752.944 1.752 2.24 0 1.296-.728 2.24-1.744 2.24-.592 0-1.048-.32-1.312-.888h-.032v.808h-.632Zm1.856-.528c.704 0 1.184-.664 1.184-1.632 0-.968-.48-1.632-1.184-1.632s-1.2.672-1.2 1.632c0 .96.496 1.632 1.2 1.632Zm3.541-2.576h1.368c.528 0 .88-.376.88-.936s-.352-.936-.88-.936h-1.368v1.872Zm-.696 3.104v-5.6h2.024c.936 0 1.592.64 1.592 1.56 0 .76-.448 1.328-1.136 1.504l1.296 2.536h-.76l-1.272-2.48h-1.048v2.48h-.696Zm5.869 0v-4.976h-1.688v-.624h4.064v.624h-1.68v4.976h-.696Zm6.373-1.424h.664c-.12.88-.864 1.504-1.784 1.504-1.272 0-2.144-1.176-2.144-2.88 0-1.712.872-2.88 2.128-2.88.896 0 1.616.592 1.752 1.424h-.672c-.112-.472-.536-.784-1.056-.784-.88 0-1.448.888-1.448 2.248 0 1.36.568 2.232 1.456 2.232.552 0 .992-.344 1.104-.864Z" fill="#fff"/><rect x="545.205" y="144.006" width="90.5" height="14.5" rx="7.25" fill="#1F1F1F"/><rect x="545.205" y="144.006" width="90.5" height="14.5" rx="7.25" stroke="#303030" stroke-width=".5"/><path d="M551.839 154.256v-5.6h.696v2.384h2.352v-2.384h.696v5.6h-.696v-2.576h-2.352v2.576h-.696Zm6.373 0v-4.976h-1.688v-.624h4.064v.624h-1.68v4.976h-.696Zm4.413 0v-4.976h-1.688v-.624h4.064v.624h-1.68v4.976h-.696Zm3.405 0v-5.6h2.048c.96 0 1.632.672 1.632 1.616 0 .944-.672 1.616-1.632 1.616h-1.352v2.368h-.696Zm.696-2.992h1.392c.552 0 .92-.4.92-.992 0-.6-.368-.992-.92-.992h-1.392v1.984Zm9.914 3.072c-1.088 0-1.888-.936-1.888-2.24 0-1.304.8-2.24 1.888-2.24 1.088 0 1.888.936 1.888 2.24 0 1.304-.8 2.24-1.888 2.24Zm0-.608c.712 0 1.208-.672 1.208-1.632 0-.96-.496-1.632-1.208-1.632s-1.208.672-1.208 1.632c0 .96.496 1.632 1.208 1.632Zm3.989.528h-.672v-4.32h.632v.696h.032c.24-.472.672-.752 1.208-.752.68 0 1.168.456 1.248 1.16h-.688c-.072-.352-.36-.568-.736-.568-.6 0-1.024.544-1.024 1.328v2.456Zm7.697 0-.592-5.6h.64l.456 4.688h.032l1.008-3.84h.592l1.008 3.84h.032l.464-4.688h.632l-.592 5.6h-.856l-.968-3.696h-.032l-.968 3.696h-.856Zm5.629-2.032c.048.92.536 1.52 1.272 1.52.448 0 .808-.232.936-.592h.64c-.16.712-.8 1.184-1.592 1.184-1.12 0-1.92-.944-1.92-2.264 0-1.296.76-2.216 1.832-2.216 1.04 0 1.76.864 1.76 2.112v.256h-2.928Zm1.168-1.784c-.6 0-1.032.488-1.144 1.256h2.24c-.032-.76-.488-1.256-1.096-1.256Zm2.501 3.816v-5.92h.672v2.328h.032c.264-.52.704-.808 1.264-.808 1.016 0 1.752.944 1.752 2.24 0 1.296-.728 2.24-1.744 2.24-.592 0-1.048-.32-1.312-.888h-.032v.808h-.632Zm1.856-.528c.704 0 1.184-.664 1.184-1.632 0-.968-.48-1.632-1.184-1.632s-1.2.672-1.2 1.632c0 .96.496 1.632 1.2 1.632Zm2.621-.896h.656c.056.536.56.912 1.232.912.704 0 1.184-.408 1.184-1.008 0-.512-.352-.824-1.064-.976l-.328-.064c-1.008-.2-1.528-.712-1.528-1.528 0-.944.704-1.592 1.728-1.592.992 0 1.76.608 1.808 1.424h-.656c-.064-.472-.536-.808-1.136-.808-.64 0-1.064.376-1.064.936 0 .48.32.784.944.912l.328.064c1.096.224 1.656.752 1.656 1.6 0 .984-.76 1.664-1.856 1.664-1.072 0-1.872-.648-1.904-1.536Zm6.533 1.504c-1.088 0-1.888-.936-1.888-2.24 0-1.304.8-2.24 1.888-2.24 1.088 0 1.888.936 1.888 2.24 0 1.304-.8 2.24-1.888 2.24Zm0-.608c.712 0 1.208-.672 1.208-1.632 0-.96-.496-1.632-1.208-1.632s-1.208.672-1.208 1.632c0 .96.496 1.632 1.208 1.632Zm5.597-.576h.664c-.136.704-.808 1.184-1.608 1.184-1.136 0-1.96-.96-1.96-2.248 0-1.296.816-2.232 1.936-2.232.808 0 1.456.48 1.576 1.184h-.656c-.12-.36-.472-.584-.92-.584-.768 0-1.264.664-1.264 1.624 0 .984.512 1.656 1.296 1.656.456 0 .824-.224.936-.584Zm1.781 1.104v-5.92h.672v3.776l2-2.176h.856l-1.632 1.752 1.768 2.568h-.8l-1.424-2.072-.768.824v1.248h-.672Zm5.164-2.032c.048.92.536 1.52 1.272 1.52.448 0 .808-.232.936-.592h.64c-.16.712-.8 1.184-1.592 1.184-1.12 0-1.92-.944-1.92-2.264 0-1.296.76-2.216 1.832-2.216 1.04 0 1.76.864 1.76 2.112v.256h-2.928Zm1.168-1.784c-.6 0-1.032.488-1.144 1.256h2.24c-.032-.76-.488-1.256-1.096-1.256Zm4.573 2.368c0 .648.28.96.856.96.24 0 .48-.056.72-.176v.56c-.224.12-.512.184-.832.184-.928 0-1.416-.528-1.416-1.528v-2.272h-1.216v-.6h1.216v-1.248l.672-.112v1.36h1.496v.6h-1.496v2.272Z" fill="#fff"/><path d="M16 217a8 8 0 0 1 8-8h310a8 8 0 0 1 8 8v116a8 8 0 0 1-8 8H24a8 8 0 0 1-8-8V217Z" fill="#051518"/><path d="M16 217a8 8 0 0 1 8-8h310a8 8 0 0 1 8 8v116a8 8 0 0 1-8 8H24a8 8 0 0 1-8-8V217Z" fill="#000" fill-opacity=".3"/><path d="M16 217a8 8 0 0 1 8-8h310a8 8 0 0 1 8 8v116a8 8 0 0 1-8 8H24a8 8 0 0 1-8-8V217Z" stroke="#035C6D" stroke-linecap="round"/><g filter="url(#c)"><g clip-path="url(#d)" fill="#F0F0F0"><path d="M181 258h-4v4h4v-4Zm4.001-4H181v4.001h4.001V254Zm0 8H181v4.001h4.001V262Z"/><path d="M189 250h-4.001v4.001H189V250Zm0 16h-4.001v4H189v-4Zm-15.999-.001V250H169v20h12v-4.001h-7.999Z"/></g></g><path d="M135.265 289v-7h.87v6.22h3.19v.78h-4.06Zm6.556 0v-.78h1.59v-5.44h-1.57V282h4v.78h-1.56v5.44h1.58v.78h-4.04Zm8.347 0-2.16-7h.89l1.84 6.03h.04l1.84-6.03h.87l-2.16 7h-1.16Zm5.796 0v-7h4.16v.78h-3.29v2.2h2.85v.78h-2.85v2.46h3.29v.78h-4.16Zm7.936-7v3.55l3.15-3.55h1.07l-2.59 2.94 2.72 4.06h-1.01l-2.29-3.4-1.05 1.18V289h-.87v-7h.87Zm6.266 7v-.78h1.59v-5.44h-1.57V282h4v.78h-1.56v5.44h1.58v.78h-4.04Zm8.406 0v-6.22h-2.11V282h5.08v.78h-2.1V289h-.87Zm16.082-1.78h.83c-.15 1.1-1.08 1.88-2.23 1.88-1.59 0-2.68-1.47-2.68-3.6 0-2.14 1.09-3.6 2.66-3.6 1.12 0 2.02.74 2.19 1.78h-.84c-.14-.59-.67-.98-1.32-.98-1.1 0-1.81 1.11-1.81 2.81s.71 2.79 1.82 2.79c.69 0 1.24-.43 1.38-1.08Zm3.576 1.78v-7h.87v6.22h3.19v.78h-4.06Zm8.456.1c-1.55 0-2.64-1.48-2.64-3.6s1.09-3.6 2.64-3.6 2.64 1.48 2.64 3.6-1.09 3.6-2.64 3.6Zm0-.8c1.07 0 1.77-1.1 1.77-2.8 0-1.7-.7-2.8-1.77-2.8s-1.77 1.1-1.77 2.8c0 1.7.7 2.8 1.77 2.8Zm9.636-6.3v4.8c0 1.35-.97 2.3-2.34 2.3-1.37 0-2.34-.95-2.34-2.3V282h.87v4.8c0 .9.6 1.5 1.47 1.5.88 0 1.47-.6 1.47-1.5V282h.87Zm2.757 7v-7h1.99c1.69 0 2.84 1.42 2.84 3.5s-1.15 3.5-2.84 3.5h-1.99Zm.87-.78h1.12c1.19 0 1.96-1.06 1.96-2.72 0-1.66-.77-2.72-1.96-2.72h-1.12v5.44Zm-89.04 13.08c-1.28-1.22-2.02-2.98-2.02-4.8 0-1.82.74-3.58 2.02-4.8h.98c-1.39 1.34-2.13 3.01-2.13 4.8s.74 3.46 2.13 4.8h-.98Zm5.816-1.2c-1.55 0-2.64-1.48-2.64-3.6s1.09-3.6 2.64-3.6 2.64 1.48 2.64 3.6-1.09 3.6-2.64 3.6Zm0-.8c1.07 0 1.77-1.1 1.77-2.8 0-1.7-.7-2.8-1.77-2.8s-1.77 1.1-1.77 2.8c0 1.7.7 2.8 1.77 2.8Zm6.396-3.18h1.71c.66 0 1.1-.47 1.1-1.17s-.44-1.17-1.1-1.17h-1.71v2.34Zm-.87 3.88v-7h2.53c1.17 0 1.99.8 1.99 1.95 0 .95-.56 1.66-1.42 1.88l1.62 3.17h-.95l-1.59-3.1h-1.31v3.1h-.87Zm15.463.1c-1.55 0-2.64-1.48-2.64-3.6s1.09-3.6 2.64-3.6 2.64 1.48 2.64 3.6-1.09 3.6-2.64 3.6Zm0-.8c1.07 0 1.77-1.1 1.77-2.8 0-1.7-.7-2.8-1.77-2.8s-1.77 1.1-1.77 2.8c0 1.7.7 2.8 1.77 2.8Zm4.946-1.08h.82c.07.67.7 1.14 1.54 1.14.88 0 1.48-.51 1.48-1.26 0-.64-.44-1.03-1.33-1.22l-.41-.08c-1.26-.25-1.91-.89-1.91-1.91 0-1.18.88-1.99 2.16-1.99 1.24 0 2.2.76 2.26 1.78h-.82c-.08-.59-.67-1.01-1.42-1.01-.8 0-1.33.47-1.33 1.17 0 .6.4.98 1.18 1.14l.41.08c1.37.28 2.07.94 2.07 2 0 1.23-.95 2.08-2.32 2.08-1.34 0-2.34-.81-2.38-1.92Zm7.296 0h.82c.07.67.7 1.14 1.54 1.14.88 0 1.48-.51 1.48-1.26 0-.64-.44-1.03-1.33-1.22l-.41-.08c-1.26-.25-1.91-.89-1.91-1.91 0-1.18.88-1.99 2.16-1.99 1.24 0 2.2.76 2.26 1.78h-.82c-.08-.59-.67-1.01-1.42-1.01-.8 0-1.33.47-1.33 1.17 0 .6.4.98 1.18 1.14l.41.08c1.37.28 2.07.94 2.07 2 0 1.23-.95 2.08-2.32 2.08-1.34 0-2.34-.81-2.38-1.92Zm13.402 0h.82c.07.67.7 1.14 1.54 1.14.88 0 1.48-.51 1.48-1.26 0-.64-.44-1.03-1.33-1.22l-.41-.08c-1.26-.25-1.91-.89-1.91-1.91 0-1.18.88-1.99 2.16-1.99 1.24 0 2.2.76 2.26 1.78h-.82c-.08-.59-.67-1.01-1.42-1.01-.8 0-1.33.47-1.33 1.17 0 .6.4.98 1.18 1.14l.41.08c1.37.28 2.07.94 2.07 2 0 1.23-.95 2.08-2.32 2.08-1.34 0-2.34-.81-2.38-1.92Zm7.766 1.78v-7h4.16v.78h-3.29v2.2h2.85v.78h-2.85v2.46h3.29v.78h-4.16Zm7.846-3.88h1.71c.66 0 1.1-.47 1.1-1.17s-.44-1.17-1.1-1.17h-1.71v2.34Zm-.87 3.88v-7h2.53c1.17 0 1.99.8 1.99 1.95 0 .95-.56 1.66-1.42 1.88l1.62 3.17h-.95l-1.59-3.1h-1.31v3.1h-.87Zm8.306 0-2.16-7h.89l1.84 6.03h.04l1.84-6.03h.87l-2.16 7h-1.16Zm5.526 0v-7h4.16v.78h-3.29v2.2h2.85v.78h-2.85v2.46h3.29v.78h-4.16Zm8.147-3.88h1.71c.66 0 1.1-.47 1.1-1.17s-.44-1.17-1.1-1.17h-1.71v2.34Zm-.87 3.88v-7h2.53c1.17 0 1.99.8 1.99 1.95 0 .95-.56 1.66-1.42 1.88l1.62 3.17h-.95l-1.59-3.1h-1.31v3.1h-.87Zm7.886 1.3h-.98c1.39-1.34 2.13-3.01 2.13-4.8s-.74-3.46-2.13-4.8h.98c1.28 1.22 2.02 2.98 2.02 4.8 0 1.82-.74 3.58-2.02 4.8Z" fill="#EDEDED"/><defs><clipPath id="a"><rect x="16" y="34" width="326" height="66" rx="8" fill="#fff"/></clipPath><clipPath id="b"><rect x="427" y="34" width="325" height="66" rx="8" fill="#fff"/></clipPath><clipPath id="d"><path fill="#fff" transform="translate(169 250)" d="M0 0h20v20H0z"/></clipPath><filter id="c" x="161" y="240" width="36" height="40" filterUnits="userSpaceOnUse" color-interpolation-filters="sRGB"><feFlood flood-opacity="0" result="BackgroundImageFix"/><feColorMatrix in="SourceAlpha" values="0 0 0 0 0 0 0 0 0 0 0 0 0 0 0 0 0 0 127 0" result="hardAlpha"/><feOffset/><feGaussianBlur stdDeviation="4"/><feColorMatrix values="0 0 0 0 0.6 0 0 0 0 0.6 0 0 0 0 0.6 0 0 0 1 0"/><feBlend in2="BackgroundImageFix" result="effect1_dropShadow_689_6613"/><feBlend in="SourceGraphic" in2="effect1_dropShadow_689_6613" result="shape"/></filter></defs></svg>